<?xml version="1.0" encoding="utf-8"?>
<!-- Generator: Adobe Illustrator 19.2.1, SVG Export Plug-In . SVG Version: 6.00 Build 0)  -->
<svg version="1.1" id="Layer_1" xmlns="http://www.w3.org/2000/svg" xmlns:xlink="http://www.w3.org/1999/xlink" x="0px" y="0px"
	 viewBox="0 0 283.5 113.4" style="enable-background:new 0 0 283.5 113.4;" xml:space="preserve">
<style type="text/css">
	.st0{fill:#FFFFFF;}
	.st1{fill:#06345B;}
	.st2{fill:#18335C;}
</style>
<g>
	<path class="st0" d="M55.2,14.9C32.5,14.9,14,33.4,14,56.1s18.5,41.2,41.2,41.2s41.2-18.5,41.2-41.2S77.9,14.9,55.2,14.9z"/>
	<path class="st1" d="M76.1,52.2c0-2.2-2.2-4.8-6.7-4.4c-2.9,0.3-6.1,1.8-9.2,3.3l0.5-2l1.1-5.5c0.6-3.2,1.2-4.5,2-4.5
		c0.4,0,0.8,0.3,1,0.9c0.3,0.6,0.7,1.3,1.7,1.3s1.6-0.8,1.6-2c0-1.5-1.3-2.7-2.8-2.7c-3.7,0-6.6,4.3-8.2,12.3l-0.8,4
		c-1.3,0.7-2.2,0.9-3.4,1c-0.5,0-1.3-0.1-1.7-0.3c0-0.3,0.3-1,0.3-1.9c0.1-2.3-1.3-2.8-2.2-2.7c-1.2,0-2.7,0.5-2.7,3.1
		c0,1.2,0.9,2.4,2.2,3.2c-0.1,0.3-0.1,0.3-0.2,0.5c-1.2,2.8-6.4,13.2-7.2,12.1c-3.6-5.1,0.3-17.4,0.3-17.4c-0.5-0.2-3.4-1.7-6.7-1.7
		c-3.5,0.1-5.3,3-5.6,5.8c-0.2,1.8,0.4,2.7,1.6,2.9c1,0.1,1.9-0.7,2-1.9c0.1-1-0.5-1.5-0.9-1.8c-0.3-0.3-0.5-0.4-0.5-0.7
		c0.1-0.6,0.6-1.1,1.2-1.1c0.1,0,0.3,0.1,0.6,0.2c1,0.3,3.4,1.2,4.3,0.3c-3.3,6.9-2.2,18.8,3.2,18.1c3.2-0.4,6.6-8,9.6-14.7
		c0-0.1,1,0.6,4.8,0.3c0.1,0,0.2,0,0.3,0l-2.8,13.4c-0.5,2.3-1.3,5.5-2.5,5.5c-0.4,0-0.7-0.4-1-1s-0.8-1.4-1.8-1.4s-1.8,0.9-1.8,2
		c0,1.8,1.6,2.8,3.1,2.8c3.9,0,6.7-4.3,8.6-13.2l1.9-9c2.2-0.7,4.3-2.1,5.9-3c-0.2,0.7-0.5,1.8-0.5,2.5c0,2.2,1.3,4.3,2.6,6.3
		c1.1,1.6,2,3.2,2,4.5c0,1.1-1.1,2.2-2.3,2.2c-1,0-1.4-0.8-1.8-1.7c-0.4-0.9-0.8-1.8-1.9-1.8c-0.9,0-1.7,1-1.7,2.2
		c0,2,1.9,3.5,4.4,3.5c3.5,0,6-2.6,6-6.1c0-2.7-1.5-5.1-2.9-7.2c-0.9-1.5-1.8-2.7-1.8-3.7c-0.1-1.9,2.6-3.1,4.3-3
		c0.6,0,1.1,0.1,1.6,0.3c-0.8,0.4-1.3,1.1-1.2,2.2c0,1.4,1.1,2,2,2C75.4,54.4,76.2,53.3,76.1,52.2z"/>
	<path class="st2" d="M76.3,62.7c-1.2,0-2.1,1.1-2.1,2.5c0,1.4,1,2.3,2.1,2.3c1.3,0,2.1-1,2.1-2.3C78.4,63.8,77.6,62.7,76.3,62.7z"
		/>
	<path class="st0" d="M165.8,66c0-1-0.8-1.8-1.8-1.8c-0.9,0-1.8,0.7-1.8,1.8c0,1,0.8,1.8,1.8,1.8C165,67.7,165.8,67,165.8,66z"/>
	<path class="st0" d="M122.2,58.6c-0.6,1.3-1.1,3.3-1.1,3.3s-0.6-2.1-1.1-3.3l-4.2-10h-3.1l8.1,18.8h0.4l7.9-18.8h-2.8L122.2,58.6z"
		/>
	<polygon class="st0" points="132.8,67.2 135.7,67.2 135.7,60.4 143.5,60.4 143.5,57.8 135.7,57.8 135.7,51.2 144.3,51.2 
		144.3,48.7 132.8,48.7 	"/>
	<path class="st0" d="M154.2,56.5L153,56c-1.9-0.8-2.7-1.4-2.7-2.8c0-1.3,0.9-2.2,2.4-2.2c1.4,0,2.3,0.6,3,1.8l2.3-1.4
		c-1.1-2-2.8-2.9-5.2-2.9c-3.1,0-5.2,2-5.2,4.7c0,2.9,1.6,4.2,4.3,5.4l1.2,0.5c2,0.9,3.1,1.6,3.1,3.2c0,1.5-1.3,2.5-3.2,2.5
		c-2.3,0-3.4-1.1-4.3-2.6l-2.4,1.3c1,2.1,3.2,3.8,6.7,3.8s6-1.9,6-5.1C159,59.4,157.3,57.9,154.2,56.5z"/>
	<path class="st0" d="M177,60.4h5v3.3c-1,0.7-2.7,1.2-4.6,1.2c-4.2,0-6.9-3-6.9-6.9c0-4,2.7-6.9,6.6-6.9c2.2,0,3.6,0.7,4.6,1.8
		l1.9-1.9c-1.5-1.7-3.7-2.5-6.6-2.5c-5.5,0-9.5,4-9.5,9.5s4.1,9.5,9.9,9.5c3.5,0,6-1.3,7.2-2.4v-7.2H177V60.4z"/>
	<polygon class="st0" points="200,64.7 191.5,64.7 191.5,48.7 188.6,48.7 188.6,67.2 200,67.2 	"/>
	<path class="st0" d="M210.3,48.4c-5.3,0-9.6,4-9.6,9.5s4.3,9.5,9.6,9.5s9.6-4,9.6-9.5l0,0C219.9,52.4,215.6,48.4,210.3,48.4z
		 M210.3,64.9c-3.9,0-6.6-3-6.6-6.9c0-4,2.8-6.9,6.6-6.9c3.9,0,6.6,3,6.6,6.9C216.9,61.9,214.2,64.9,210.3,64.9z"/>
	<path class="st0" d="M232.8,56.9c1.6-0.5,2.5-1.8,2.5-3.6c0-2.6-1.8-4.7-5.2-4.7h-6.7v18.6h7.2c3.9,0,6-2.4,6-5.6
		C236.6,59.3,235.3,57.5,232.8,56.9z M226.2,51.2h3.7c1.8,0,2.6,1,2.6,2.3c0,1.4-0.8,2.3-2.5,2.3h-3.7v-4.6H226.2z M230.4,64.7h-4.2
		v-6.3h4c2.3,0,3.4,1.3,3.4,3.2C233.7,63.4,232.6,64.7,230.4,64.7z"/>
	<path class="st0" d="M246.9,48.5L239,67.2h2.8l1.7-4.2h7.2l1.7,4.2h3l-8.1-18.8h-0.4V48.5z M249.6,60.4h-5.1l1.6-4
		c0.5-1.1,0.9-2.8,0.9-2.8s0.5,1.7,0.9,2.8L249.6,60.4z"/>
	<polygon class="st0" points="261.4,64.7 261.4,48.7 258.5,48.7 258.5,67.2 270,67.2 270,64.7 	"/>
	<path class="st0" d="M183.2,76.8h-4.5c-0.1,0-0.3,0.1-0.3,0.3V78c0,0.1,0.1,0.3,0.3,0.3h1.5V84c0,0.1,0.1,0.3,0.3,0.3h1
		c0.1,0,0.3-0.1,0.3-0.3v-5.8h1.5c0.1,0,0.3-0.1,0.3-0.3V77C183.4,77,183.3,76.8,183.2,76.8z"/>
	<path class="st0" d="M174.2,79.8c-0.8-0.3-1.2-0.7-1.2-1.1c0-0.3,0.3-0.7,0.9-0.7c0.3,0,0.8,0.2,1.4,0.6c0.1,0.1,0.3,0,0.4-0.1
		l0.4-0.6c0.1-0.1,0.1-0.2,0-0.2c0-0.1-0.1-0.1-0.1-0.2c-0.1-0.1-1-0.7-2.1-0.7c-1.6,0-2.4,1.1-2.4,2.1c0,1.3,1.1,2,2,2.3
		c0.9,0.4,1.3,0.7,1.3,1.2c0,0.4-0.4,0.7-0.9,0.7c-0.4,0-0.9-0.2-1.5-0.6c-0.1-0.1-0.4-0.1-0.4,0.1l-0.4,0.6c-0.1,0.2,0,0.3,0.1,0.4
		s0.9,0.8,2.3,0.8c1.6,0,2.5-1.1,2.5-2.1C176.4,80.9,175.3,80.3,174.2,79.8z"/>
	<path class="st0" d="M168.9,76.8h-4.2c-0.1,0-0.3,0.1-0.3,0.3V84c0,0.1,0.1,0.3,0.3,0.3h4.2c0.1,0,0.3-0.1,0.3-0.3v-0.9
		c0-0.1-0.1-0.3-0.3-0.3h-3v-1.7h2.5c0.1,0,0.3-0.1,0.3-0.3V80c0-0.1-0.1-0.3-0.3-0.3h-2.5v-1.6h3c0.1,0,0.3-0.1,0.3-0.3v-0.9
		C169.2,77,169,76.8,168.9,76.8z"/>
	<path class="st0" d="M185.9,82.5c-0.5,0-0.9,0.4-0.9,0.9s0.4,0.9,0.9,0.9s0.9-0.4,0.9-0.9C186.8,82.9,186.4,82.5,185.9,82.5z"/>
	<path class="st0" d="M196.1,80.8c0.4-0.6,0.7-1,0.7-1.7c0-1.3-1-2.1-2.4-2.1c-1.2,0-2.1,1-2.1,1c-0.1,0.1-0.1,0.3,0,0.4l0.5,0.5
		c0.1,0.1,0.3,0.1,0.4,0c0.2-0.2,0.6-0.6,1.1-0.6c0.7,0,1,0.5,1,0.9c0,0.3-0.2,0.7-0.5,1.1c-0.7,0.9-2,2.6-2.7,3.5V84
		c0,0.1,0.1,0.3,0.3,0.3h4.1c0.1,0,0.3-0.1,0.3-0.3v-0.7c0-0.1-0.1-0.3-0.3-0.3h-2.1l0.2-0.3C195.1,82.1,195.8,81.3,196.1,80.8z"/>
	<path class="st0" d="M209.6,76.9c-1.7,0-2.7,1.4-2.7,3.7c0,2.3,1,3.7,2.7,3.7s2.7-1.4,2.7-3.7S211.3,76.9,209.6,76.9z M209.6,83
		c-0.8,0-1.2-0.9-1.2-2.4s0.4-2.4,1.2-2.4c0.7,0,1.2,0.9,1.2,2.4S210.4,83,209.6,83z"/>
	<path class="st0" d="M216.8,77H216l-1.5,1.3c0,0-0.1,0.1-0.1,0.2l0.1,0.5c0,0.1,0.1,0.2,0.3,0.2l0.8-0.2v5c0,0.1,0.1,0.3,0.3,0.3
		h0.9c0.1,0,0.2-0.1,0.2-0.3v-6.7C217.1,77.2,216.9,77,216.8,77z"/>
	<path class="st0" d="M202,76.9c-1.7,0-2.7,1.4-2.7,3.7c0,2.3,1,3.7,2.7,3.7s2.7-1.4,2.7-3.7C204.6,78.3,203.6,76.9,202,76.9z
		 M202,83c-0.8,0-1.2-0.9-1.2-2.4s0.4-2.4,1.2-2.4s1.2,0.9,1.2,2.4C203.1,82.1,202.7,83,202,83z"/>
</g>
</svg>
